<svg width="531" height="235" viewBox="0 0 531 235" fill="none" xmlns="http://www.w3.org/2000/svg">
<path d="M35.2814 176.241C35.4383 175.212 34.9933 174.416 33.9465 173.852C32.8733 173.283 31.0714 172.806 28.5407 172.42L18.8649 170.862C17.4678 170.649 16.5011 170.178 15.965 169.449C15.4065 168.689 15.248 167.518 15.4894 165.937C15.6383 164.961 15.9151 164.208 16.3199 163.676C16.7288 163.118 17.4268 162.699 18.4138 162.418C19.4008 162.137 20.6972 162.038 22.3031 162.121C23.9089 162.204 26.0167 162.445 28.6265 162.843C30.1818 163.081 31.6116 163.434 32.9158 163.902C34.22 164.371 35.3387 164.906 36.2721 165.507C37.2054 166.108 38.0324 166.787 38.7531 167.545C39.4514 168.272 40.0118 169.018 40.4345 169.784C40.8571 170.55 41.1946 171.343 41.447 172.164C41.673 172.981 41.8088 173.77 41.8543 174.533C41.8775 175.265 41.8368 175.973 41.7322 176.659C41.3701 179.031 40.2909 181.065 38.4946 182.76C39.7603 184.895 40.2101 187.162 39.844 189.561C39.687 190.589 39.3852 191.595 38.9383 192.579C38.465 193.559 37.7769 194.533 36.8738 195.501C35.9748 196.443 34.9225 197.24 33.7169 197.892C32.485 198.541 30.9589 198.996 29.1386 199.257C27.296 199.489 25.307 199.441 23.1717 199.115C19.7184 198.588 17.1327 198.032 15.4148 197.446C13.7009 196.834 12.5779 196.15 12.0458 195.394C11.5177 194.612 11.3522 193.576 11.5494 192.284C11.7143 191.203 12.0032 190.37 12.4161 189.786C12.8027 189.198 13.306 188.816 13.9262 188.641C14.5464 188.466 15.3178 188.448 16.2404 188.589L25.8948 190.022C28.4255 190.408 30.2878 190.49 31.4816 190.268C32.6755 190.045 33.361 189.354 33.538 188.194C33.6265 187.614 33.4556 187.143 33.0254 186.781C32.5688 186.414 31.8081 186.096 30.7434 185.826C29.1621 185.935 26.7503 185.742 23.5078 185.247C21.6889 184.97 20.245 184.709 19.1763 184.465C18.1075 184.221 17.1898 183.959 16.4231 183.681C15.6564 183.402 15.1298 183.052 14.8435 182.63C14.5571 182.209 14.3822 181.764 14.3188 181.296C14.233 180.797 14.2525 180.139 14.3772 179.322C14.4497 178.848 14.5252 178.441 14.6039 178.102C14.6865 177.737 14.8179 177.407 14.998 177.11C15.1781 176.814 15.337 176.569 15.4746 176.374C15.6122 176.179 15.8401 176.012 16.1582 175.871C16.4764 175.731 16.7489 175.624 16.9759 175.551C17.2029 175.478 17.5597 175.438 18.0463 175.431C18.5369 175.398 18.9687 175.397 19.3418 175.426C19.6925 175.426 20.2238 175.48 20.9355 175.589C21.625 175.667 22.2333 175.746 22.7605 175.827C23.2654 175.877 23.9924 175.974 24.9414 176.119C28.2629 176.626 30.6884 177.172 32.2178 177.756C33.1829 177.795 33.9116 177.704 34.404 177.482C34.8964 177.261 35.1889 176.847 35.2814 176.241Z" fill="white"/>
<path d="M48.8755 154.627C47.648 157.64 45.8539 159.818 43.4931 161.159C41.1424 162.476 38.6212 162.587 35.9293 161.49C33.0152 160.303 31.1109 158.404 30.2164 155.793C29.3073 153.148 29.4765 150.294 30.7241 147.232C31.9013 144.343 33.2801 142.443 34.8607 141.532C36.4266 140.586 38.0986 140.475 39.8767 141.2C40.2224 141.34 40.5357 141.526 40.8165 141.755C41.1073 141.96 41.373 142.227 41.6136 142.555C41.8395 142.849 42.0229 143.211 42.1638 143.643C42.29 144.04 42.3837 144.481 42.445 144.967C42.4816 145.443 42.4509 145.977 42.3531 146.571C42.2305 147.154 42.0435 147.755 41.7919 148.372L39.701 153.611C40.5919 153.686 41.4027 153.498 42.1335 153.047C42.8396 152.586 43.3939 151.861 43.7964 150.874C44.229 149.812 44.5359 148.67 44.717 147.448C44.7847 146.928 44.7934 146.341 44.7431 145.687C44.7028 145.009 44.733 144.546 44.8336 144.299C45.0047 143.879 45.259 143.608 45.5965 143.487C45.944 143.34 46.303 143.343 46.6735 143.494C47.118 143.675 47.5808 144.094 48.0619 144.75C48.5183 145.397 48.9217 146.209 49.272 147.187C49.6077 148.13 49.7613 149.272 49.733 150.614C49.7046 151.956 49.4188 153.294 48.8755 154.627ZM37.2547 152.83C37.9243 151.116 38.2892 150.185 38.3496 150.037C38.5005 149.666 38.3889 149.304 38.0148 148.95C37.7441 148.696 37.3247 148.453 36.7567 148.221C35.2009 147.588 34.2318 147.74 33.8495 148.678C33.7086 149.024 33.753 149.445 33.9826 149.942C34.2222 150.414 34.6374 150.914 35.2283 151.443C35.7945 151.961 36.47 152.424 37.2547 152.83Z" fill="white"/>
<path d="M52.4386 133.633C54.3207 134.693 55.4917 135.765 55.9517 136.851C56.4117 137.936 56.2753 139.129 55.5426 140.43C54.8099 141.732 53.9133 142.482 52.8528 142.68C51.769 142.865 50.2977 142.435 48.4388 141.388L33.6912 133.175C33.087 132.835 32.5853 132.476 32.186 132.098C31.7998 131.697 31.5029 131.301 31.2954 130.908C31.1009 130.493 30.9907 130.063 30.9648 129.62C30.9388 129.177 30.9841 128.744 31.1005 128.32C31.2299 127.872 31.419 127.428 31.6676 126.986C32.3872 125.708 33.1793 124.9 34.0437 124.56C34.9213 124.197 36.1385 124.454 37.6953 125.331L52.4386 133.633Z" fill="white"/>
<path d="M53.6077 115.971C53.1109 115.611 52.6592 115.712 52.2526 116.274C51.9555 116.684 51.9164 117.216 52.1355 117.868C52.3545 118.52 52.7471 119.183 53.3132 119.857C53.8577 120.514 54.4971 121.109 55.2315 121.64C56.3115 122.422 57.4209 122.732 58.5596 122.568C59.714 122.384 60.6978 121.73 61.511 120.606C62.3085 119.505 62.867 118.461 63.1864 117.474C63.3346 117.087 63.454 116.581 63.5448 115.955C63.6513 115.308 63.7749 114.887 63.9156 114.693C64.1345 114.391 64.3684 114.181 64.6171 114.065C64.8659 113.949 65.0893 113.913 65.2874 113.958C65.5011 113.981 65.6944 114.055 65.8672 114.18C66.1696 114.399 66.4586 114.773 66.7343 115.302C67.0255 115.809 67.2524 116.45 67.4148 117.226C67.5773 118.002 67.6526 118.831 67.6407 119.711C67.623 120.554 67.4387 121.491 67.088 122.521C66.7374 123.551 66.2258 124.53 65.5534 125.459C63.6143 128.137 61.3064 129.824 58.6297 130.52C55.9315 131.201 53.3296 130.634 50.824 128.82C49.2256 127.663 48.1138 126.265 47.4888 124.627C46.8578 122.952 46.7403 121.205 47.1363 119.385C47.5108 117.549 48.3469 115.734 49.6449 113.942C50.8803 112.235 52.102 110.98 53.3099 110.175C54.5119 109.333 55.6197 108.917 56.6333 108.927C57.647 108.937 58.6182 109.278 59.547 109.95C59.9574 110.247 60.316 110.638 60.6229 111.124C60.9455 111.588 61.1976 112.149 61.3794 112.807C61.5769 113.444 61.5814 114.188 61.3931 115.04C61.1831 115.875 60.7654 116.725 60.1399 117.589C59.8584 117.978 59.6022 118.286 59.3714 118.514C59.1562 118.72 58.8821 118.917 58.5492 119.104C58.2104 119.254 57.832 119.276 57.4142 119.171C56.9964 119.066 56.539 118.834 56.0422 118.474C55.6102 118.162 55.1466 117.711 54.6512 117.122C54.1499 116.495 53.8021 116.112 53.6077 115.971Z" fill="white"/>
<path d="M73.822 100.773C72.8211 99.8138 71.8253 99.0991 70.8348 98.6295C69.8249 98.1415 69.0893 98.1381 68.6279 98.6193C68.3141 98.9465 68.2297 99.4197 68.3748 100.039C68.5198 100.658 68.816 101.293 69.2635 101.944C69.7109 102.595 70.2522 103.225 70.8874 103.834C71.869 104.775 72.8643 105.471 73.8734 105.921C74.8632 106.353 75.598 106.319 76.0779 105.818C76.5578 105.318 76.552 104.592 76.0605 103.64C75.569 102.689 74.8228 101.733 73.822 100.773ZM79.427 109.03C77.9874 110.531 76.4167 111.63 74.715 112.326C73.0318 113.002 71.3006 113.189 69.5214 112.887C67.7606 112.566 66.1585 111.713 64.7149 110.329C62.5207 108.225 61.4986 105.804 61.6486 103.066C61.7986 100.328 62.9994 97.7849 65.2511 95.4367C67.5028 93.0885 69.984 91.7916 72.6947 91.5462C75.4055 91.3007 77.858 92.2299 80.0522 94.334C82.2272 96.4196 83.2112 98.8225 83.0042 101.543C82.8157 104.244 81.6233 106.739 79.427 109.03Z" fill="white"/>
<path d="M100.555 76.5236C99.6492 75.3362 98.7193 75.1064 97.7652 75.8342C97.3411 76.1577 97.209 76.6441 97.369 77.2935C97.5289 77.9429 97.8919 78.6386 98.458 79.3807C99.3151 80.5045 100.006 81.4535 100.529 82.228C101.074 82.9863 101.52 83.7027 101.867 84.3772C102.213 85.0517 102.442 85.6152 102.552 86.0677C102.663 86.5202 102.68 86.96 102.603 87.3873C102.51 87.7934 102.337 88.1602 102.084 88.4876C101.814 88.7938 101.436 89.1329 100.948 89.5048C100.206 90.0709 99.521 90.4258 98.8928 90.5695C98.2858 90.6971 97.7413 90.6429 97.2594 90.4068C96.7775 90.1707 96.3182 89.7664 95.8815 89.1939L91.4907 83.4374C90.585 82.25 89.6551 82.0202 88.701 82.748C88.3193 83.0391 88.1711 83.5043 88.2563 84.1437C88.3465 84.7456 88.6585 85.3964 89.1922 86.0961L92.5641 90.5169C93.5345 91.7891 93.9487 92.8817 93.8068 93.7949C93.6487 94.6869 92.9018 95.6423 91.566 96.6612C90.315 97.6154 89.238 97.9841 88.3349 97.7675C87.4368 97.5134 86.4783 96.7185 85.4594 95.3827L79.4917 87.5589C78.6669 86.4776 78.2901 85.3899 78.3612 84.296C78.4535 83.1859 78.9873 82.2588 79.9627 81.5149C81.7013 80.1887 83.2324 79.9096 84.556 80.6776C84.9089 79.4693 85.378 78.4575 85.9634 77.6421C86.57 76.8104 87.3928 75.9984 88.4318 75.2059C90.0008 74.0092 91.6526 73.8224 93.3874 74.6457C93.4287 74.48 93.47 74.3144 93.5113 74.1487C94.2383 71.716 95.7891 69.594 98.1638 67.7827C99.6692 66.6345 101.187 66.3821 102.718 67.0257C104.248 67.6693 106.041 69.3375 108.095 72.0303C108.952 73.154 109.642 74.1031 110.166 74.8775C110.711 75.6358 111.156 76.3522 111.503 77.0268C111.85 77.7013 112.068 78.2729 112.157 78.7415C112.268 79.194 112.263 79.65 112.144 80.1097C112.03 80.5319 111.826 80.9229 111.53 81.2827C111.239 81.6051 110.829 81.9684 110.299 82.3727C109.493 82.9873 108.755 83.3826 108.084 83.5587C107.435 83.7187 106.859 83.6887 106.355 83.4687C105.852 83.2488 105.382 82.8526 104.946 82.2801L100.555 76.5236Z" fill="white"/>
<path d="M126.038 73.248C123.215 74.8652 120.46 75.4752 117.774 75.0779C115.111 74.6674 113.057 73.2011 111.612 70.679C110.048 67.9487 109.718 65.2798 110.621 62.6724C111.534 60.0287 113.426 57.8849 116.295 56.2412C119.002 54.6902 121.259 54.0427 123.065 54.2987C124.881 54.5183 126.266 55.4611 127.221 57.1271C127.406 57.451 127.539 57.7899 127.619 58.1437C127.722 58.4843 127.767 58.858 127.754 59.2649C127.751 59.6353 127.672 60.034 127.517 60.4608C127.372 60.8513 127.174 61.2567 126.923 61.677C126.659 62.0742 126.305 62.4765 125.863 62.8838C125.407 63.268 124.889 63.6258 124.311 63.9572L119.437 66.7955C120.093 67.4034 120.847 67.7548 121.701 67.8498C122.541 67.9216 123.424 67.6924 124.349 67.1622C125.344 66.5922 126.289 65.8817 127.185 65.0306C127.558 64.6631 127.926 64.2062 128.29 63.6601C128.676 63.1006 128.985 62.7547 129.216 62.6221C129.61 62.3967 129.977 62.3401 130.318 62.4522C130.681 62.551 130.963 62.774 131.162 63.121C131.4 63.5375 131.507 64.1526 131.481 64.9663C131.442 65.7569 131.26 66.6452 130.934 67.6312C130.617 68.5808 130.034 69.5754 129.185 70.6149C128.337 71.6545 127.287 72.5321 126.038 73.248ZM117.991 64.6737C119.574 63.7359 120.435 63.2272 120.574 63.1476C120.921 62.9488 121.056 62.5947 120.98 62.0855C120.923 61.7184 120.742 61.2687 120.437 60.7366C119.602 59.2788 118.745 58.8018 117.866 59.3056C117.542 59.4911 117.317 59.8503 117.192 60.3829C117.09 60.9023 117.109 61.5523 117.249 62.3327C117.376 63.09 117.623 63.8703 117.991 64.6737Z" fill="white"/>
<path d="M143.212 54.6453L141.384 50.2935C140.759 50.5271 140.226 50.6353 139.785 50.6181C139.334 50.5763 138.96 50.444 138.664 50.2213C138.393 49.9882 138.164 49.6504 137.978 49.2079C137.389 47.8065 137.917 46.688 139.562 45.8526L138.122 42.4228C137.729 41.4885 138.054 40.3686 139.097 39.0631C140.129 37.733 141.309 36.7891 142.636 36.2314C143.448 35.8907 144.074 35.9022 144.516 36.2661C144.959 36.63 145.376 37.279 145.768 38.2133L147.586 42.4389L148.582 42.0207C149.934 41.4527 150.934 41.2499 151.58 41.4121C152.241 41.5395 152.768 42.0703 153.16 43.0045C153.326 43.3979 153.391 43.7608 153.357 44.0932C153.323 44.4256 153.165 44.7379 152.883 45.0299C152.625 45.3117 152.278 45.5876 151.842 45.8575C151.396 46.1029 150.828 46.3702 150.14 46.6593L149.476 46.9381L151.18 50.9948C151.345 51.3882 151.497 51.715 151.635 51.9751C151.788 52.2003 151.932 52.3712 152.067 52.4877C152.203 52.6042 152.343 52.6613 152.486 52.6588C152.655 52.646 152.837 52.5983 153.034 52.5157C153.329 52.3918 153.533 52.1902 153.647 51.9109C153.751 51.607 153.8 51.3115 153.796 51.0243C153.805 50.7022 153.854 50.4067 153.944 50.1377C154.048 49.8338 154.222 49.6303 154.468 49.527C155.034 49.2895 155.521 49.244 155.929 49.3905C156.363 49.5267 156.662 49.7915 156.827 50.1849C157.106 50.8487 157.27 51.6185 157.32 52.4942C157.394 53.3597 157.335 54.2522 157.143 55.1717C156.951 56.0912 156.51 56.9704 155.821 57.8093C155.157 58.6379 154.284 59.2793 153.202 59.7337C150.768 60.756 148.789 60.8643 147.264 60.0583C145.74 59.2524 144.389 57.4481 143.212 54.6453Z" fill="white"/>
<path d="M172.302 42.6847C171.875 41.3656 171.336 40.2649 170.685 39.3824C170.027 38.4746 169.38 38.1235 168.746 38.3291C168.315 38.4688 168.016 38.8459 167.851 39.4601C167.686 40.0743 167.646 40.7739 167.733 41.5589C167.819 42.3439 167.998 43.155 168.269 43.9921C168.688 45.2858 169.236 46.3698 169.912 47.244C170.579 48.0929 171.243 48.4104 171.902 48.1966C172.562 47.9828 172.9 47.3405 172.918 46.2697C172.935 45.1988 172.73 44.0039 172.302 42.6847ZM173.333 52.6106C171.354 53.2519 169.451 53.4764 167.623 53.2842C165.819 53.0837 164.206 52.4293 162.781 51.3212C161.382 50.2049 160.374 48.6954 159.758 46.7929C158.82 43.901 159.066 41.2846 160.493 38.9436C161.921 36.6026 164.182 34.9306 167.277 33.9275C170.372 32.9244 173.172 32.956 175.676 34.0225C178.18 35.089 179.901 37.0682 180.838 39.9601C181.767 42.8266 181.497 45.4091 180.027 47.7075C178.583 49.9978 176.352 51.6321 173.333 52.6106Z" fill="white"/>
<path d="M216.12 35.3075C216.906 35.1579 217.573 35.0987 218.122 35.1299C218.666 35.135 219.109 35.2542 219.452 35.4875C219.816 35.6896 220.086 35.964 220.26 36.3108C220.461 36.6527 220.614 37.0986 220.719 37.6487C220.973 38.9848 220.721 39.9421 219.962 40.5208C219.204 41.0996 217.79 41.5859 215.72 41.9798L200.985 44.7849C200.252 44.9245 199.465 44.8571 198.626 44.5826C197.807 44.2769 197.077 43.7915 196.435 43.1266C195.787 42.4355 195.381 41.6577 195.217 40.7932C195.067 40.0073 194.984 39.358 194.968 38.8453C194.973 38.3014 195.094 37.722 195.329 37.1071C195.565 36.4921 195.784 36.0025 195.986 35.6383C196.21 35.2429 196.616 34.5956 197.205 33.6962L205.489 22.6725L197.513 24.191C195.757 24.5251 194.44 24.5181 193.559 24.17C192.673 23.7956 192.116 23.006 191.886 21.8009C191.672 20.6745 191.837 19.8288 192.381 19.2637C192.946 18.6675 193.857 18.2498 195.114 18.0104L211.186 14.951C211.972 14.8014 212.693 14.8133 213.351 14.9868C214.003 15.1341 214.529 15.4004 214.928 15.7859C215.322 16.1452 215.638 16.5195 215.875 16.9087C216.112 17.2979 216.265 17.6759 216.335 18.0427C216.425 18.5142 216.491 18.9358 216.535 19.3076C216.579 19.6793 216.567 20.0479 216.501 20.4134C216.456 20.7477 216.425 21.0115 216.407 21.2049C216.39 21.3982 216.28 21.677 216.078 22.0412C215.902 22.4005 215.772 22.6424 215.687 22.7672C215.602 22.8919 215.403 23.2012 215.09 23.6952C214.772 24.1629 214.549 24.4903 214.422 24.6774L204.96 37.4318L216.12 35.3075Z" fill="white"/>
<path d="M231.97 40.0874C229.874 40.2966 228.051 39.6209 226.502 38.0604C224.95 36.4733 224.025 34.1938 223.729 31.2219C223.427 28.1969 223.864 25.728 225.04 23.8151C226.24 21.8731 227.901 20.7961 230.024 20.5843C232.173 20.3698 234.239 20.9275 236.22 22.2573C236.805 20.8591 237.893 20.0805 239.485 19.9216C240.918 19.7787 242.064 19.9859 242.923 20.5433C243.78 21.0741 244.292 22.1754 244.459 23.8471L245.492 34.1957C245.651 35.7878 245.43 36.9354 244.83 37.6384C244.228 38.3149 243.091 38.7366 241.419 38.9034C239.668 39.0781 238.464 38.7024 237.809 37.7762C236.225 39.0867 234.278 39.8571 231.97 40.0874ZM236.045 26.1339C235.517 25.4094 234.894 25.0829 234.178 25.1544C233.488 25.2232 232.981 25.783 232.657 26.8337C232.333 27.8844 232.236 29.0598 232.366 30.3601C232.488 31.5807 232.795 32.6487 233.289 33.5643C233.782 34.4798 234.387 34.9018 235.103 34.8303C235.846 34.7562 236.408 34.3384 236.787 33.577L236.045 26.1339Z" fill="white"/>
<path d="M260.607 27.2874C260.574 25.7944 259.97 25.0613 258.797 25.0879C258.237 25.1007 257.776 25.3512 257.414 25.8396C257.077 26.3006 256.891 26.9184 256.856 27.6927L256.996 33.8511C257.033 35.4774 256.725 36.6047 256.072 37.233C255.42 37.8613 254.254 38.1945 252.574 38.2327C251.001 38.2684 249.913 37.933 249.31 37.2265C248.733 36.4928 248.426 35.2861 248.388 33.6066L248.164 23.7691C248.133 22.4094 248.469 21.3082 249.17 20.4654C249.897 19.622 250.874 19.1864 252.101 19.1585C253.114 19.1355 253.97 19.2627 254.67 19.5402C255.37 19.8178 255.901 20.3125 256.264 21.0244C258.313 19.6175 260.83 18.8802 263.816 18.8123C265.709 18.7693 267.085 19.4849 267.946 20.9591C268.833 22.4327 269.315 24.8757 269.392 28.2881C269.431 29.9677 269.422 31.3416 269.366 32.4098C269.31 33.4513 269.197 34.3608 269.028 35.1382C268.885 35.8883 268.631 36.4542 268.266 36.8359C267.902 37.2176 267.468 37.4942 266.965 37.6657C266.489 37.8365 265.864 37.9308 265.091 37.9483C263.598 37.9822 262.512 37.7268 261.833 37.1821C261.18 36.6368 260.841 35.8176 260.816 34.7246L260.607 27.2874Z" fill="white"/>
<path d="M289.899 33.7526C290.671 33.7921 291.265 33.9293 291.68 34.1642C292.095 34.399 292.373 34.7203 292.512 35.1279C292.651 35.5356 292.703 36.0856 292.668 36.778C292.623 37.6569 292.287 38.2271 291.659 38.4887C291.06 38.7251 290.001 38.8044 288.483 38.7268L276.698 38.1239C275.793 38.0776 274.97 37.7284 274.229 37.0763C273.516 36.399 273.185 35.5544 273.237 34.5424C273.294 33.4238 273.485 32.5658 273.809 31.9682C274.135 31.3441 274.843 30.5392 275.935 29.5537L281.45 24.3086L278.534 24.1595C277.096 24.0859 276.068 23.833 275.449 23.4008C274.83 22.9687 274.544 22.2998 274.59 21.3943C274.641 20.409 274.9 19.7681 275.37 19.4716C275.84 19.1486 276.794 19.0239 278.232 19.0974L290.376 19.7187C291.362 19.7691 292.12 20.0882 292.651 20.6761C293.209 21.2387 293.464 21.9994 293.415 22.9582C293.369 23.8636 293.213 24.5499 292.949 25.0171C292.685 25.4842 292.018 26.2644 290.947 27.3578L284.584 33.5208L289.899 33.7526Z" fill="white"/>
<path d="M298.03 14.8235C298.123 13.9483 298.569 13.2715 299.371 12.793C300.201 12.2907 301.306 12.1123 302.685 12.2579C305.576 12.5629 306.915 13.7232 306.702 15.7387C306.584 16.8525 306.131 17.5956 305.341 17.9681C304.577 18.3434 303.479 18.4554 302.047 18.3043C300.801 18.1727 299.792 17.8249 299.02 17.2608C298.248 16.6967 297.918 15.8842 298.03 14.8235ZM304.525 35.982C304.357 37.5732 303.908 38.652 303.178 39.2185C302.451 39.7585 301.252 39.9403 299.581 39.764C298.016 39.5989 296.98 39.1275 296.472 38.3499C295.994 37.5486 295.843 36.3126 296.019 34.6418L297.052 24.8562C297.195 23.5037 297.667 22.4542 298.47 21.7077C299.299 20.9639 300.324 20.6564 301.544 20.7852C302.976 20.9363 304.056 21.3721 304.785 22.0925C305.516 22.7865 305.793 23.9688 305.617 25.6395L304.525 35.982Z" fill="white"/>
<path d="M319.205 24.8051C321.158 23.8111 323.147 23.4858 325.172 23.8292C327.223 24.177 328.784 25.3345 329.857 27.3016C330.93 29.2686 331.241 31.5799 330.791 34.2353C330.247 37.4428 328.783 39.7775 326.398 41.2393C324.018 42.6749 321.171 43.1117 317.858 42.5498C315.834 42.2065 314.108 41.6163 312.682 40.7792C311.281 39.9467 310.245 38.8784 309.574 37.5744C308.929 36.2749 308.731 34.8079 308.981 33.1734L311.424 18.2923C311.701 16.6623 312.298 15.5329 313.216 14.9043C314.134 14.2756 315.25 14.0727 316.565 14.2957C318.037 14.5454 319.055 15.0832 319.618 15.909C320.212 16.7129 320.38 17.8774 320.121 19.4023L319.205 24.8051ZM317.351 35.9724C317.673 36.9466 318.254 37.505 319.096 37.6477C319.806 37.7681 320.433 37.4148 320.979 36.5878C321.525 35.7607 321.896 34.7688 322.093 33.612C322.2 32.981 322.252 32.3543 322.249 31.7317C322.247 31.1092 322.194 30.5457 322.09 30.0413C321.99 29.5105 321.821 29.076 321.581 28.7378C321.345 28.3732 321.043 28.1597 320.675 28.0973C319.86 27.9591 319.133 28.3362 318.495 29.2287C318.437 29.5705 318.27 30.5564 317.993 32.1865C317.721 33.7902 317.507 35.0522 317.351 35.9724Z" fill="white"/>
<path d="M338.853 46.812C336.811 46.2931 335.328 45.0358 334.405 43.0402C333.488 41.0188 333.397 38.5607 334.133 35.666C334.881 32.7197 336.135 30.5482 337.893 29.1515C339.684 27.7356 341.613 27.2903 343.68 27.8158C345.774 28.3478 347.525 29.5769 348.934 31.5033C349.96 30.3884 351.249 30.0279 352.799 30.422C354.195 30.7767 355.202 31.3627 355.819 32.18C356.444 32.9715 356.549 34.1814 356.135 35.8096L353.574 45.8892C353.18 47.4399 352.581 48.4433 351.777 48.8994C350.98 49.3297 349.767 49.3379 348.139 48.9241C346.433 48.4906 345.43 47.7268 345.13 46.6326C343.194 47.3236 341.101 47.3834 338.853 46.812ZM347.445 35.0871C347.197 34.2259 346.723 33.7067 346.025 33.5293C345.353 33.3586 344.686 33.7117 344.023 34.5887C343.36 35.4658 342.867 36.5375 342.545 37.8039C342.243 38.9928 342.168 40.1017 342.319 41.1306C342.47 42.1596 342.895 42.7627 343.593 42.94C344.316 43.1239 344.986 42.9228 345.603 42.3367L347.445 35.0871Z" fill="white"/>
<path d="M364.567 49.6187C364.055 51.1348 363.382 52.0895 362.545 52.4829C361.718 52.851 360.495 52.7623 358.878 52.2168C357.387 51.7139 356.491 51.0319 356.191 50.1707C355.899 49.2842 356.021 48.045 356.558 46.4531L359.703 37.1292C359.993 36.2701 360.396 35.5759 360.913 35.0465C361.437 34.4918 362.05 34.1356 362.75 33.9778C363.451 33.8201 364.193 33.8734 364.976 34.1376C366.897 34.7853 367.972 35.7674 368.204 37.0837C370.044 36.4663 371.647 36.3876 373.011 36.8479C375.665 37.7428 376.565 39.4537 375.713 41.9805C375.372 42.9912 374.804 43.7144 374.01 44.15C373.216 44.5857 372.351 44.6459 371.416 44.3305C370.86 44.143 370.444 43.8759 370.167 43.5292C369.915 43.1909 369.676 42.857 369.449 42.5273C369.248 42.2061 368.958 41.9816 368.579 41.8538C368.023 41.6663 367.542 41.7152 367.136 42.0004L364.567 49.6187Z" fill="white"/>
<path d="M406.48 60.8374C407.147 59.5011 406.943 58.5651 405.869 58.0294C405.392 57.7913 404.897 57.8872 404.385 58.3169C403.872 58.7467 403.408 59.3792 402.991 60.2144C402.36 61.4791 401.813 62.5171 401.348 63.3285C400.908 64.1517 400.461 64.8677 400.009 65.4763C399.556 66.0849 399.151 66.5384 398.793 66.8369C398.436 67.1354 398.048 67.3444 397.631 67.464C397.226 67.5598 396.82 67.5661 396.415 67.483C396.021 67.376 395.55 67.1856 395.001 66.9118C394.166 66.4952 393.545 66.0366 393.139 65.5361C392.757 65.0475 392.566 64.5348 392.566 63.9982C392.565 63.4615 392.726 62.8711 393.047 62.2268L396.279 55.7482C396.946 54.412 396.742 53.476 395.668 52.9403C395.239 52.726 394.756 52.798 394.22 53.1562C393.719 53.5025 393.272 54.0694 392.879 54.8569L390.397 59.8321C389.683 61.2638 388.885 62.1172 388.003 62.3923C387.132 62.6435 385.945 62.3941 384.442 61.6442C383.034 60.9418 382.228 60.1375 382.025 59.2314C381.857 58.3132 382.148 57.1025 382.898 55.5992L387.291 46.7941C387.898 45.5772 388.708 44.7595 389.722 44.3412C390.759 43.9348 391.826 44.0054 392.924 44.553C394.881 45.5292 395.806 46.7805 395.7 48.3071C396.94 48.0914 398.055 48.0665 399.045 48.2326C400.059 48.4106 401.15 48.7912 402.32 49.3745C404.085 50.2554 404.981 51.6559 405.007 53.5759C405.174 53.54 405.341 53.5041 405.507 53.4681C408.011 53.0485 410.6 53.5053 413.272 54.8386C414.967 55.6838 415.862 56.9352 415.959 58.5928C416.056 60.2504 415.348 62.5944 413.837 65.6249C413.206 66.8896 412.658 67.9276 412.194 68.739C411.753 69.5623 411.306 70.2782 410.854 70.8868C410.401 71.4954 409.984 71.943 409.603 72.2296C409.245 72.528 408.834 72.7252 408.369 72.821C407.94 72.9049 407.499 72.8933 407.045 72.7864C406.628 72.6675 406.121 72.4593 405.524 72.1617C404.617 71.7093 403.937 71.221 403.484 70.6966C403.054 70.1842 402.827 69.6537 402.802 69.1052C402.778 68.5566 402.927 67.9602 403.248 67.3159L406.48 60.8374Z" fill="white"/>
<path d="M420.792 82.13C418.082 80.3298 416.303 78.1399 415.456 75.5601C414.631 72.9951 415.022 70.5019 416.63 68.0808C418.372 65.4597 420.61 63.9693 423.346 63.6098C426.119 63.2428 428.882 63.974 431.637 65.8037C434.236 67.53 435.825 69.258 436.405 70.9877C437.022 72.71 436.799 74.3707 435.736 75.97C435.53 76.281 435.286 76.5514 435.006 76.7811C434.747 77.0256 434.433 77.2332 434.064 77.404C433.731 77.5672 433.339 77.6751 432.888 77.7277C432.474 77.7727 432.023 77.7772 431.535 77.741C431.061 77.6826 430.543 77.5467 429.981 77.3331C429.433 77.0974 428.882 76.795 428.326 76.4262L423.606 73.3388C423.356 74.1972 423.38 75.0292 423.677 75.8348C423.989 76.6183 424.589 77.3051 425.478 77.8953C426.433 78.5298 427.491 79.0568 428.653 79.4765C429.149 79.6458 429.722 79.7705 430.373 79.8508C431.047 79.9458 431.494 80.0671 431.716 80.2147C432.094 80.4655 432.309 80.7684 432.361 81.1233C432.436 81.493 432.363 81.8444 432.141 82.1776C431.876 82.5774 431.373 82.9481 430.634 83.2895C429.91 83.6087 429.034 83.8432 428.006 83.9928C427.015 84.135 425.865 84.0593 424.556 83.7656C423.246 83.4719 421.991 82.9267 420.792 82.13ZM424.856 71.0957C426.404 72.0916 427.244 72.6338 427.377 72.7223C427.71 72.9437 428.088 72.9061 428.509 72.6095C428.811 72.3945 429.133 72.0316 429.472 71.5207C430.402 70.1213 430.444 69.1413 429.6 68.5806C429.289 68.374 428.868 68.334 428.335 68.4606C427.825 68.602 427.252 68.9099 426.617 69.3843C425.997 69.8365 425.41 70.407 424.856 71.0957Z" fill="white"/>
<path d="M454.956 95.463C455.944 94.3437 455.989 93.3868 455.089 92.5925C454.69 92.2395 454.187 92.2046 453.581 92.4879C452.975 92.7711 452.363 93.2625 451.746 93.9621C450.81 95.0215 450.013 95.8834 449.356 96.5477C448.718 97.2296 448.102 97.8063 447.508 98.2778C446.914 98.7492 446.405 99.083 445.983 99.2793C445.561 99.4756 445.132 99.5777 444.698 99.5858C444.282 99.5739 443.889 99.4755 443.518 99.2907C443.165 99.0859 442.759 98.7805 442.299 98.3745C441.6 97.7567 441.118 97.1537 440.855 96.5655C440.612 95.995 440.559 95.4504 440.697 94.9317C440.835 94.413 441.142 93.8839 441.619 93.3442L446.411 87.9172C447.399 86.7978 447.444 85.841 446.544 85.0467C446.184 84.729 445.699 84.6741 445.089 84.8821C444.516 85.0877 443.938 85.5203 443.356 86.1799L439.675 90.3476C438.616 91.5469 437.625 92.1658 436.702 92.2043C435.796 92.2227 434.714 91.6759 433.454 90.5639C432.275 89.5225 431.704 88.5378 431.741 87.6098C431.815 86.6794 432.408 85.5846 433.52 84.3253L440.034 76.9494C440.934 75.93 441.927 75.3488 443.014 75.2057C444.121 75.0803 445.134 75.4235 446.054 76.2355C447.693 77.6829 448.264 79.1304 447.769 80.5782C449.022 80.6892 450.106 80.9525 451.02 81.3681C451.954 81.8013 452.91 82.4504 453.89 83.3153C455.369 84.6214 455.874 86.2054 455.404 88.0672C455.574 88.0755 455.745 88.0838 455.915 88.0921C458.443 88.3318 460.826 89.4402 463.065 91.4171C464.484 92.6703 465.027 94.1102 464.693 95.7368C464.36 97.3634 463.072 99.446 460.83 101.985C459.895 103.044 459.098 103.906 458.441 104.57C457.803 105.252 457.187 105.829 456.593 106.3C455.998 106.772 455.48 107.097 455.038 107.275C454.616 107.471 454.167 107.556 453.693 107.529C453.257 107.499 452.834 107.374 452.423 107.154C452.05 106.932 451.614 106.6 451.114 106.159C450.355 105.488 449.823 104.841 449.52 104.217C449.237 103.611 449.154 103.04 449.272 102.504C449.39 101.968 449.687 101.43 450.164 100.89L454.956 95.463Z" fill="white"/>
<path d="M471.223 115.038C472.301 114.165 473.135 113.267 473.725 112.343C474.335 111.402 474.431 110.673 474.011 110.155C473.726 109.803 473.267 109.66 472.634 109.726C472.002 109.792 471.335 110.006 470.633 110.369C469.931 110.731 469.239 111.189 468.555 111.743C467.498 112.599 466.683 113.499 466.11 114.444C465.557 115.372 465.499 116.105 465.935 116.644C466.372 117.183 467.093 117.268 468.098 116.9C469.104 116.531 470.146 115.911 471.223 115.038ZM462.33 119.564C461.021 117.948 460.127 116.252 459.65 114.477C459.19 112.722 459.221 110.981 459.744 109.254C460.283 107.547 461.33 106.064 462.884 104.806C465.247 102.892 467.777 102.181 470.474 102.673C473.172 103.165 475.544 104.675 477.592 107.203C479.639 109.732 480.615 112.356 480.519 115.076C480.423 117.796 479.194 120.113 476.831 122.026C474.49 123.923 471.982 124.598 469.31 124.052C466.654 123.526 464.327 122.03 462.33 119.564Z" fill="white"/>
<path d="M478.584 134.791C477.219 135.626 476.089 135.925 475.195 135.69C474.324 135.441 473.444 134.589 472.554 133.133C471.733 131.79 471.484 130.692 471.806 129.839C472.151 128.972 473.041 128.1 474.474 127.224L482.87 122.092C483.643 121.619 484.398 121.345 485.134 121.271C485.892 121.182 486.591 121.302 487.229 121.631C487.867 121.959 488.402 122.476 488.833 123.182C489.89 124.911 490.085 126.354 489.418 127.512C491.226 128.22 492.505 129.188 493.256 130.417C494.716 132.806 494.309 134.696 492.034 136.087C491.124 136.643 490.224 136.833 489.335 136.658C488.447 136.482 487.745 135.973 487.23 135.132C486.925 134.631 486.777 134.159 486.787 133.715C486.811 133.294 486.842 132.885 486.879 132.486C486.931 132.111 486.853 131.753 486.644 131.411C486.338 130.911 485.938 130.64 485.444 130.598L478.584 134.791Z" fill="white"/>
<path d="M501.482 134.004C502.276 133.626 503.087 133.654 503.913 134.088C504.775 134.535 505.504 135.384 506.099 136.636C507.347 139.261 507.056 141.009 505.226 141.879C504.215 142.36 503.344 142.361 502.614 141.881C501.895 141.426 501.227 140.547 500.608 139.247C500.07 138.115 499.84 137.073 499.919 136.12C499.997 135.167 500.518 134.462 501.482 134.004ZM486.821 150.586C485.376 151.273 484.222 151.452 483.358 151.125C482.517 150.786 481.737 149.858 481.015 148.341C480.34 146.92 480.201 145.79 480.599 144.951C481.033 144.125 482.009 143.351 483.526 142.63L492.413 138.405C493.641 137.821 494.783 137.676 495.839 137.972C496.906 138.291 497.703 139.004 498.23 140.112C498.848 141.413 499.04 142.562 498.805 143.559C498.595 144.545 497.731 145.398 496.214 146.12L486.821 150.586Z" fill="white"/>
<path d="M487.427 165.172C486.423 162.077 486.391 159.256 487.33 156.709C488.278 154.186 490.135 152.477 492.899 151.58C495.892 150.609 498.572 150.833 500.939 152.252C503.339 153.688 505.05 155.978 506.07 159.124C507.033 162.091 507.204 164.433 506.583 166.148C505.995 167.881 504.789 169.043 502.962 169.636C502.607 169.751 502.248 169.811 501.886 169.817C501.531 169.848 501.156 169.815 500.761 169.719C500.399 169.64 500.025 169.481 499.639 169.242C499.286 169.02 498.93 168.743 498.57 168.411C498.236 168.071 497.914 167.643 497.606 167.126C497.324 166.601 497.08 166.021 496.874 165.387L495.096 160.035C494.366 160.552 493.868 161.218 493.6 162.034C493.357 162.842 493.4 163.753 493.729 164.767C494.083 165.858 494.585 166.929 495.234 167.98C495.517 168.42 495.889 168.875 496.349 169.342C496.817 169.835 497.093 170.208 497.175 170.462C497.315 170.893 497.295 171.264 497.115 171.575C496.944 171.911 496.668 172.14 496.288 172.264C495.831 172.412 495.207 172.39 494.416 172.198C493.65 171.998 492.818 171.637 491.92 171.115C491.055 170.611 490.202 169.837 489.358 168.793C488.515 167.749 487.871 166.542 487.427 165.172ZM497.469 159.054C498.062 160.796 498.383 161.743 498.433 161.896C498.556 162.276 498.875 162.481 499.389 162.511C499.76 162.53 500.237 162.446 500.821 162.256C502.419 161.738 503.061 160.997 502.749 160.033C502.633 159.678 502.328 159.384 501.832 159.153C501.345 158.946 500.705 158.832 499.912 158.808C499.145 158.777 498.331 158.859 497.469 159.054Z" fill="white"/>
<path d="M511.193 181.501C511.541 183.956 511.33 186.074 510.56 187.853C509.789 189.632 508.809 190.607 507.621 190.775C507.278 190.824 506.941 190.724 506.609 190.475C506.277 190.225 506.08 189.876 506.016 189.428C505.96 189.032 506.03 188.577 506.226 188.065C506.449 187.548 506.689 187.056 506.946 186.589C507.203 186.121 507.414 185.526 507.581 184.802C507.747 184.078 507.776 183.333 507.667 182.567C507.521 181.538 507.131 181.068 506.498 181.158C506.049 181.221 505.73 181.536 505.541 182.102C505.352 182.667 505.183 183.472 505.035 184.517C504.891 185.588 504.725 186.406 504.536 186.971C504.051 189.06 503.413 190.538 502.62 191.405C501.854 192.268 500.745 192.802 499.293 193.009C498.58 193.11 497.839 193.013 497.07 192.718C496.327 192.42 495.583 191.92 494.836 191.218C494.117 190.512 493.461 189.5 492.87 188.184C492.309 186.89 491.905 185.372 491.658 183.629C491.174 180.223 491.591 177.565 492.909 175.654C493.558 174.727 494.292 174.205 495.11 174.089C495.612 174.018 496.031 174.12 496.366 174.395C496.705 174.697 496.918 175.152 497.004 175.759C497.09 176.366 496.918 177.333 496.487 178.661C496.082 179.984 495.955 181.174 496.105 182.23C496.311 183.682 496.771 184.357 497.484 184.256C497.853 184.204 498.089 183.779 498.192 182.984C498.321 182.184 498.455 181.142 498.596 179.856C498.737 178.57 498.992 177.524 499.362 176.717C499.699 175.484 500.203 174.577 500.875 173.997C501.577 173.44 502.469 173.084 503.551 172.93C505.4 172.668 507.028 173.325 508.437 174.903C509.877 176.503 510.795 178.702 511.193 181.501Z" fill="white"/>
<path d="M495.926 194.938C496.832 194.928 497.569 195.294 498.137 196.035C498.705 196.802 498.997 197.879 499.011 199.266C499.042 202.172 498.044 203.636 496.017 203.657C495.244 203.665 494.615 203.485 494.131 203.117C493.674 202.749 493.362 202.258 493.196 201.647C493.03 201.035 492.941 200.263 492.932 199.329C492.918 198.076 493.148 197.034 493.619 196.202C494.09 195.37 494.859 194.949 495.926 194.938Z" fill="white"/>
<path d="M495.932 206.965C496.835 207.046 497.533 207.483 498.024 208.276C498.513 209.096 498.696 210.197 498.572 211.578C498.314 214.473 497.175 215.831 495.157 215.65C494.386 215.582 493.779 215.34 493.334 214.925C492.916 214.513 492.654 213.995 492.549 213.369C492.444 212.744 492.433 211.967 492.516 211.037C492.628 209.789 492.96 208.774 493.511 207.994C494.063 207.213 494.87 206.87 495.932 206.965Z" fill="white"/>
<path d="M494.947 217.53C495.84 217.69 496.496 218.187 496.915 219.02C497.33 219.88 497.415 220.993 497.171 222.358C496.658 225.219 495.405 226.471 493.41 226.113C492.648 225.977 492.065 225.683 491.658 225.231C491.277 224.783 491.063 224.243 491.013 223.612C490.964 222.98 491.021 222.204 491.186 221.286C491.407 220.052 491.827 219.07 492.445 218.341C493.063 217.612 493.897 217.342 494.947 217.53Z" fill="white"/>
</svg>
